<svg width="88" height="29" viewBox="0 0 88 29" fill="none" xmlns="http://www.w3.org/2000/svg">
<path d="M0.58 25.203V7.397H0.145L0.435 4.7H5.017C5.829 4.7 6.48633 4.95133 6.989 5.454C7.49167 5.93733 7.743 6.585 7.743 7.397V13.487C7.743 13.7577 7.70433 14.0187 7.627 14.27C8.091 14.7727 8.323 15.4107 8.323 16.184V22.506C8.323 23.318 8.01367 23.9753 7.395 24.478C6.79567 24.9613 6.09 25.203 5.278 25.203H0.58ZM4.843 7.397H3.335V13.487H4.843C4.93967 13.487 4.988 13.4387 4.988 13.342V7.542C4.988 7.44533 4.93967 7.397 4.843 7.397ZM5.423 16.184H3.335V22.506H5.423C5.51967 22.506 5.568 22.4577 5.568 22.361V16.329C5.568 16.2323 5.51967 16.184 5.423 16.184ZM11.9376 25H9.18258L10.7486 7.397H10.2266L10.5166 4.7H15.8236L17.6216 25H14.8666L14.5476 21.52H12.2566L11.9376 25ZM12.4886 18.823H14.3156L13.4166 8.731L12.4886 18.823ZM18.6234 25V7.397H18.1884L18.4784 4.7H21.3784V25H18.6234ZM22.245 7.397V4.7H30.22V7.397H27.61V25H24.855V7.397H22.245ZM32.9796 25H30.2246L31.7906 7.397H31.2686L31.5586 4.7H36.8656L38.6636 25H35.9086L35.5896 21.52H33.2986L32.9796 25ZM33.5306 18.823H35.3576L34.4586 8.731L33.5306 18.823ZM39.5204 25.203V7.397H39.0854L39.3754 4.7H43.9574C44.7694 4.7 45.4268 4.95133 45.9294 5.454C46.4321 5.93733 46.6834 6.585 46.6834 7.397V13.487C46.6834 13.7577 46.6448 14.0187 46.5674 14.27C47.0314 14.7727 47.2634 15.4107 47.2634 16.184V22.506C47.2634 23.318 46.9541 23.9753 46.3354 24.478C45.7361 24.9613 45.0304 25.203 44.2184 25.203H39.5204ZM43.7834 7.397H42.2754V13.487H43.7834C43.8801 13.487 43.9284 13.4387 43.9284 13.342V7.542C43.9284 7.44533 43.8801 7.397 43.7834 7.397ZM44.3634 16.184H42.2754V22.506H44.3634C44.4601 22.506 44.5084 22.4577 44.5084 22.361V16.329C44.5084 16.2323 44.4601 16.184 44.3634 16.184ZM55.721 22.303L55.489 25H48.558V7.397H48.123L48.413 4.7H51.313V22.303H55.721ZM63.039 22.303L62.807 25H56.456V7.397H56.021L56.311 4.7H63.039L62.749 7.397H59.211V13.487H62.459L62.169 16.184H59.211V22.303H63.039Z" fill="white"/>
<path fill-rule="evenodd" clip-rule="evenodd" d="M76.2126 8.82355C77.8207 8.82355 79.1243 7.5199 79.1243 5.91178C79.1243 4.30365 77.8207 3 76.2126 3C74.6044 3 73.3008 4.30365 73.3008 5.91178C73.3008 7.5199 74.6044 8.82355 76.2126 8.82355ZM76.1508 7.33689C76.9035 7.33689 77.5137 6.72667 77.5137 5.97393C77.5137 5.22119 76.9035 4.61097 76.1508 4.61097C75.398 4.61097 74.7878 5.22119 74.7878 5.97393C74.7878 6.72667 75.398 7.33689 76.1508 7.33689Z" fill="white"/>
<path d="M75.4696 8.20368L78.1955 8.01782L73.1261 13.3085C73.0773 13.3595 72.9948 13.3022 73.0257 13.2386L75.4696 8.20368Z" fill="white"/>
<path d="M80.9209 9.87695L87.1781 12.6029L84.6381 13.9039L83.0273 16.0103L80.9209 9.87695Z" fill="white"/>
<path fill-rule="evenodd" clip-rule="evenodd" d="M77.1585 11.4866C74.1659 12.4479 72 15.2541 72 18.5661C72 22.672 75.3285 26.0004 79.4343 26.0004C83.5402 26.0004 86.8686 22.672 86.8686 18.5661C86.8686 15.1817 84.6071 12.3255 81.5129 11.4263L82.002 12.9264C84.1421 13.9023 85.6296 16.0605 85.6296 18.5661C85.6296 21.9877 82.8559 24.7614 79.4343 24.7614C76.0128 24.7614 73.2391 21.9877 73.2391 18.5661C73.2391 16.8809 73.9119 15.3529 75.0036 14.236L77.1585 11.4866Z" fill="white"/>
<path fill-rule="evenodd" clip-rule="evenodd" d="M77.1585 11.4866C74.1659 12.4479 72 15.2541 72 18.5661C72 22.672 75.3285 26.0004 79.4343 26.0004C83.5402 26.0004 86.8686 22.672 86.8686 18.5661C86.8686 15.1817 84.6071 12.3255 81.5129 11.4263L82.002 12.9264C84.1421 13.9023 85.6296 16.0605 85.6296 18.5661C85.6296 21.9877 82.8559 24.7614 79.4343 24.7614C76.0128 24.7614 73.2391 21.9877 73.2391 18.5661C73.2391 16.8809 73.9119 15.3529 75.0036 14.236L77.1585 11.4866Z" fill="white"/>
</svg>
