<svg width="24" height="24" viewBox="0 0 24 24" fill="none" xmlns="http://www.w3.org/2000/svg">
<path fill-rule="evenodd" clip-rule="evenodd" d="M8.21256 5.82355C9.82069 5.82355 11.1243 4.5199 11.1243 2.91178C11.1243 1.30365 9.82069 0 8.21256 0C6.60443 0 5.30078 1.30365 5.30078 2.91178C5.30078 4.5199 6.60443 5.82355 8.21256 5.82355ZM8.15079 4.33689C8.90353 4.33689 9.51375 3.72667 9.51375 2.97393C9.51375 2.22119 8.90353 1.61097 8.15079 1.61097C7.39805 1.61097 6.78783 2.22119 6.78783 2.97393C6.78783 3.72667 7.39805 4.33689 8.15079 4.33689Z" fill="white"/>
<path d="M7.46956 5.20368L10.1955 5.01782L5.12614 10.3085C5.07728 10.3595 4.99484 10.3022 5.02568 10.2386L7.46956 5.20368Z" fill="white"/>
<path d="M12.9209 6.87695L19.1781 9.60287L16.6381 10.9039L15.0273 13.0103L12.9209 6.87695Z" fill="white"/>
<path fill-rule="evenodd" clip-rule="evenodd" d="M9.15852 8.4866C6.16586 9.44787 4 12.2541 4 15.5661C4 19.672 7.32846 23.0004 11.4343 23.0004C15.5402 23.0004 18.8686 19.672 18.8686 15.5661C18.8686 12.1817 16.6071 9.32553 13.5129 8.42627L14.002 9.92635C16.1421 10.9023 17.6296 13.0605 17.6296 15.5661C17.6296 18.9877 14.8559 21.7614 11.4343 21.7614C8.01277 21.7614 5.23905 18.9877 5.23905 15.5661C5.23905 13.8809 5.9119 12.3529 7.0036 11.236L9.15852 8.4866Z" fill="white"/>
<path fill-rule="evenodd" clip-rule="evenodd" d="M9.15852 8.4866C6.16586 9.44787 4 12.2541 4 15.5661C4 19.672 7.32846 23.0004 11.4343 23.0004C15.5402 23.0004 18.8686 19.672 18.8686 15.5661C18.8686 12.1817 16.6071 9.32553 13.5129 8.42627L14.002 9.92635C16.1421 10.9023 17.6296 13.0605 17.6296 15.5661C17.6296 18.9877 14.8559 21.7614 11.4343 21.7614C8.01277 21.7614 5.23905 18.9877 5.23905 15.5661C5.23905 13.8809 5.9119 12.3529 7.0036 11.236L9.15852 8.4866Z" fill="white"/>
</svg>
