<svg width="294" height="294" viewBox="0 0 294 294" fill="none" xmlns="http://www.w3.org/2000/svg">
<path fill-rule="evenodd" clip-rule="evenodd" d="M111.143 87.0214C127.993 87.0214 141.653 73.3613 141.653 56.5107C141.653 39.6601 127.993 26 111.143 26C94.2919 26 80.6318 39.6601 80.6318 56.5107C80.6318 73.3613 94.2919 87.0214 111.143 87.0214ZM110.493 71.4414C118.381 71.4414 124.775 65.0473 124.775 57.1598C124.775 49.2723 118.381 42.8782 110.493 42.8782C102.606 42.8782 96.2117 49.2723 96.2117 57.1598C96.2117 65.0473 102.606 71.4414 110.493 71.4414Z" fill="white"/>
<path d="M103.353 80.5293L131.916 78.5818L78.1421 134.704C77.7478 135.116 77.0824 134.653 77.3313 134.14L103.353 80.5293Z" fill="white"/>
<path d="M160.479 98.0571L226.045 126.62L190.341 131.814L178.656 166.219L160.479 98.0571Z" fill="white"/>
<path fill-rule="evenodd" clip-rule="evenodd" d="M121.055 114.918C89.6958 124.99 67 154.394 67 189.1C67 232.123 101.877 267 144.9 267C187.922 267 222.799 232.123 222.799 189.1C222.799 153.637 199.102 123.709 166.679 114.286L170.571 126.221C195.344 136.346 212.799 160.685 212.799 189.1C212.799 226.6 182.4 257 144.9 257C107.4 257 77 226.6 77 189.1C77 165.567 88.9727 144.829 107.159 132.647L121.055 114.918Z" fill="white"/>
<path fill-rule="evenodd" clip-rule="evenodd" d="M121.055 114.918C89.6958 124.99 67 154.394 67 189.1C67 232.123 101.877 267 144.9 267C187.922 267 222.799 232.123 222.799 189.1C222.799 153.637 199.102 123.709 166.679 114.286L170.571 126.221C195.344 136.346 212.799 160.685 212.799 189.1C212.799 226.6 182.4 257 144.9 257C107.4 257 77 226.6 77 189.1C77 165.567 88.9727 144.829 107.159 132.647L121.055 114.918Z" fill="white"/>
</svg>
