<svg width="294" height="294" viewBox="0 0 294 294" fill="none" xmlns="http://www.w3.org/2000/svg">
<path d="M82.2 264.42V227.58H81.3L81.9 222H91.38C93.06 222 94.42 222.52 95.46 223.56C96.5 224.56 97.02 225.9 97.02 227.58V240.18C97.02 240.74 96.94 241.28 96.78 241.8C97.74 242.84 98.22 244.16 98.22 245.76V258.84C98.22 260.52 97.58 261.88 96.3 262.92C95.06 263.92 93.6 264.42 91.92 264.42H82.2ZM91.02 227.58H87.9V240.18H91.02C91.22 240.18 91.32 240.08 91.32 239.88V227.88C91.32 227.68 91.22 227.58 91.02 227.58ZM92.22 245.76H87.9V258.84H92.22C92.42 258.84 92.52 258.74 92.52 258.54V246.06C92.52 245.86 92.42 245.76 92.22 245.76ZM105.698 264H99.9984L103.238 227.58H102.158L102.758 222H113.738L117.458 264H111.758L111.098 256.8H106.358L105.698 264ZM106.838 251.22H110.618L108.758 230.34L106.838 251.22ZM119.531 264V227.58H118.631L119.231 222H125.231V264H119.531ZM127.024 227.58V222H143.524V227.58H138.124V264H132.424V227.58H127.024ZM149.234 264H143.534L146.774 227.58H145.694L146.294 222H157.274L160.994 264H155.294L154.634 256.8H149.894L149.234 264ZM150.374 251.22H154.154L152.294 230.34L150.374 251.22ZM162.766 264.42V227.58H161.866L162.466 222H171.946C173.626 222 174.986 222.52 176.026 223.56C177.066 224.56 177.586 225.9 177.586 227.58V240.18C177.586 240.74 177.506 241.28 177.346 241.8C178.306 242.84 178.786 244.16 178.786 245.76V258.84C178.786 260.52 178.146 261.88 176.866 262.92C175.626 263.92 174.166 264.42 172.486 264.42H162.766ZM171.586 227.58H168.466V240.18H171.586C171.786 240.18 171.886 240.08 171.886 239.88V227.88C171.886 227.68 171.786 227.58 171.586 227.58ZM172.786 245.76H168.466V258.84H172.786C172.986 258.84 173.086 258.74 173.086 258.54V246.06C173.086 245.86 172.986 245.76 172.786 245.76ZM196.285 258.42L195.805 264H181.465V227.58H180.565L181.165 222H187.165V258.42H196.285ZM211.425 258.42L210.945 264H197.805V227.58H196.905L197.505 222H211.425L210.825 227.58H203.505V240.18H210.225L209.625 245.76H203.505V258.42H211.425Z" fill="white"/>
<path fill-rule="evenodd" clip-rule="evenodd" d="M120 68C132.978 68 143.5 57.4787 143.5 44.5C143.5 31.5213 132.978 21 120 21C107.021 21 96.4995 31.5213 96.4995 44.5C96.4995 57.4787 107.021 68 120 68ZM119.5 56C125.575 56 130.5 51.0751 130.5 45C130.5 38.9249 125.575 34 119.5 34C113.424 34 108.5 38.9249 108.5 45C108.5 51.0751 113.424 56 119.5 56Z" fill="white"/>
<path d="M114 62.9998L136 61.4998L95.0871 104.199C94.6927 104.611 94.0273 104.148 94.2762 103.635L114 62.9998Z" fill="white"/>
<path d="M158 76.5L208.5 98.5L181 102.5L172 129L158 76.5Z" fill="white"/>
<path fill-rule="evenodd" clip-rule="evenodd" d="M127.634 89.4864C103.481 97.244 86 119.892 86 146.624C86 179.761 112.863 206.624 146 206.624C179.137 206.624 206 179.761 206 146.624C206 119.309 187.748 96.2575 162.775 89L166.723 101.107C183.995 108.983 196 126.401 196 146.624C196 174.238 173.614 196.624 146 196.624C118.386 196.624 96 174.238 96 146.624C96 133.02 101.433 120.685 110.247 111.67L127.634 89.4864Z" fill="white"/>
<path fill-rule="evenodd" clip-rule="evenodd" d="M127.634 89.4864C103.481 97.244 86 119.892 86 146.624C86 179.761 112.863 206.624 146 206.624C179.137 206.624 206 179.761 206 146.624C206 119.309 187.748 96.2575 162.775 89L166.723 101.107C183.995 108.983 196 126.401 196 146.624C196 174.238 173.614 196.624 146 196.624C118.386 196.624 96 174.238 96 146.624C96 133.02 101.433 120.685 110.247 111.67L127.634 89.4864Z" fill="white"/>
</svg>
